<svg width="47" height="55" viewBox="0 0 47 55" fill="none" xmlns="http://www.w3.org/2000/svg">
<path d="M44.9555 48.4588C44.5453 48.4904 44.1364 48.5262 43.7247 48.5492C42.2616 48.6338 40.7984 48.7242 39.3339 48.7887C38.9021 48.8074 38.6281 48.9609 38.3914 49.3396C37.4432 50.8544 36.4836 52.362 35.4737 53.8352C35.1653 54.2856 34.6819 54.6169 34.2788 55.0014H33.4196C32.8386 54.7432 32.4829 54.2827 32.1759 53.7376C30.8046 51.2919 29.4175 48.8562 28.0103 46.4305C27.8037 46.0762 27.9084 45.9141 28.1207 45.6172C28.7906 44.6833 29.5666 44.5054 30.631 44.9257C31.4357 45.2442 32.3065 45.435 33.1657 45.5669C35.4465 45.9184 37.6512 44.5427 38.3556 42.3452C38.6927 41.2937 38.9537 40.2179 39.2234 39.1463C39.3037 38.8307 39.4472 38.6629 39.7656 38.5883C40.4398 38.4291 41.1069 38.2397 41.8069 38.0547C41.9431 38.2842 42.0708 38.4965 42.1942 38.7102C43.5784 41.1087 44.9698 43.5013 46.3412 45.9069C47.057 47.1606 46.3971 48.3527 44.9555 48.4588Z" fill="#0067CB"/>
<path d="M18.6997 46.2766C17.2021 48.9174 15.7088 51.5626 14.1739 54.1833C13.9746 54.5233 13.5471 54.7299 13.2243 54.9981H12.3651C11.962 54.6137 11.48 54.2823 11.1716 53.8319C10.1517 52.3444 9.18204 50.821 8.22382 49.2918C8.00578 48.9447 7.75188 48.8127 7.36458 48.7912C5.45388 48.6851 3.54461 48.5617 1.63535 48.4484C0.334297 48.3724 -0.403015 47.1717 0.231016 46.0485C1.72142 43.4048 3.25772 40.7855 4.77681 38.1561C4.79259 38.1275 4.82989 38.1102 4.893 38.0586C5.58728 38.2451 6.31455 38.4158 7.02174 38.6496C7.18814 38.7041 7.34449 38.9537 7.40044 39.143C7.67585 40.0841 7.9111 41.038 8.17218 41.9833C8.90805 44.6514 11.4212 46.1231 14.1065 45.4547C15.1106 45.2051 16.1076 44.9282 17.1103 44.6714C17.2394 44.6385 17.4373 44.5868 17.5062 44.6499C17.9437 45.0473 18.3611 45.4647 18.7599 45.8993C18.8144 45.9596 18.7599 46.169 18.6997 46.2766Z" fill="#0067CB"/>
<path d="M45.2532 21.3677C44.3337 20.4396 43.4199 19.5058 42.4775 18.6006C41.8808 18.0283 41.7287 17.3914 41.9554 16.6067C42.3097 15.3717 42.631 14.128 42.9595 12.8857C43.2765 11.6837 42.8261 10.8918 41.6412 10.5705C40.4004 10.2334 39.1639 9.88772 37.9159 9.58505C37.0968 9.38566 36.6206 8.91516 36.4169 8.09895C36.0884 6.78355 35.7298 5.47533 35.3597 4.1714C35.0814 3.19024 34.2695 2.74842 33.2855 3.00806C31.9744 3.35376 30.6633 3.69947 29.3551 4.05521C28.5977 4.26178 27.9608 4.12263 27.4071 3.5302C26.4919 2.5476 25.5523 1.59081 24.6142 0.629728C23.7937 -0.20943 22.8484 -0.20943 22.035 0.626859C21.0983 1.58795 20.1559 2.54329 19.2407 3.52446C18.6884 4.11546 18.0515 4.27038 17.2941 4.05665C16.762 3.90603 16.2283 3.76402 15.6933 3.62201C14.7638 3.37385 13.8328 3.12999 13.0596 2.9263C12.1114 2.91195 11.5004 3.38389 11.2666 4.21874C10.9094 5.48967 10.545 6.75917 10.238 8.04157C10.0315 8.90799 9.53946 9.38853 8.67879 9.59796C7.37774 9.91211 6.08959 10.275 4.80288 10.6422C3.84897 10.9134 3.39425 11.7224 3.6381 12.672C3.97233 13.9673 4.29652 15.2669 4.67235 16.5508C4.91334 17.377 4.76272 18.0383 4.13156 18.6379C3.18625 19.5388 2.27537 20.4769 1.35588 21.405C0.546846 22.2198 0.54828 23.1321 1.35875 23.9497C2.27824 24.8778 3.18912 25.8145 4.13443 26.7154C4.74694 27.2992 4.91764 27.9447 4.68526 28.7523C4.32377 30.0046 4.00102 31.2655 3.67253 32.5263C3.36986 33.6839 3.84467 34.4743 5.00945 34.7842C6.25169 35.1127 7.48819 35.4598 8.73617 35.7668C9.55381 35.9662 10.0243 36.4438 10.228 37.2601C10.5551 38.5754 10.9137 39.8837 11.2852 41.1876C11.5577 42.1429 12.3639 42.5977 13.3135 42.3538C14.6275 42.0167 15.9415 41.6796 17.2439 41.3067C18.0544 41.0743 18.697 41.2464 19.2809 41.8589C20.1688 42.7913 21.0955 43.6879 22.0092 44.5973C22.8742 45.458 23.765 45.4594 24.6328 44.6002C25.5609 43.6793 26.4948 42.7669 27.3999 41.8231C27.9565 41.2435 28.5833 41.0786 29.345 41.2909C30.583 41.6337 31.8266 41.9593 33.066 42.295C34.3312 42.6364 35.1072 42.196 35.4429 40.938C35.77 39.7144 36.1157 38.4937 36.414 37.2644C36.6134 36.4453 37.0839 35.9705 37.903 35.7682C39.184 35.4526 40.4578 35.1026 41.7287 34.7483C42.8074 34.4471 43.2593 33.6581 42.9796 32.5837C42.641 31.2884 42.2996 29.9945 41.941 28.7049C41.7301 27.9432 41.8879 27.3164 42.4689 26.7584C43.4099 25.8532 44.3236 24.918 45.2446 23.9913C46.1052 23.1235 46.1095 22.2312 45.2532 21.3677ZM23.3375 35.5631C16.2728 35.5774 10.4518 29.7779 10.4317 22.7046C10.4102 15.6184 16.2413 9.7787 23.3318 9.78731C30.4065 9.79448 36.2089 15.5983 36.2118 22.6716C36.2146 29.7392 30.4137 35.5487 23.3375 35.5631Z" fill="#0067CB"/>
<path d="M23.313 13.0117C17.9754 13.0132 13.6591 17.3251 13.6563 22.6556C13.6548 28.0248 17.9654 32.3396 23.3302 32.3382C28.6664 32.3367 32.9841 28.0248 32.987 22.6929C32.9884 17.3223 28.6808 13.0103 23.313 13.0117ZM29.299 22.1707C28.6722 22.8578 27.9922 23.4933 27.3352 24.1503C25.9065 25.579 24.4807 27.0106 23.0491 28.435C22.1325 29.3473 21.2818 29.3416 20.3609 28.425C19.374 27.4395 18.3842 26.4583 17.4059 25.4643C16.9483 24.9995 16.7575 24.4487 16.9727 23.7988C17.1778 23.1792 17.6182 22.8234 18.2436 22.7087C18.816 22.6025 19.2951 22.8248 19.6939 23.2279C20.3451 23.8863 20.9892 24.5534 21.695 25.2763C23.4766 23.4876 25.1807 21.782 26.8805 20.0707C27.3051 19.6418 27.7928 19.3707 28.4111 19.4883C29.7035 19.7336 30.1927 21.1896 29.299 22.1707Z" fill="#0067CB"/>
</svg>
