<svg width="55" height="55" viewBox="0 0 55 55" fill="none" xmlns="http://www.w3.org/2000/svg">
<path d="M29.546 53.0193C29.1965 53.1152 29.0547 53.2169 29.0347 53.6022C28.9946 54.3255 28.4947 54.7266 27.8759 54.9987H27.018C26.319 54.6836 25.8564 54.2038 25.8249 53.3831C25.8206 53.2714 25.633 53.1066 25.5026 53.0694C21.8904 52.0424 19.6947 49.6949 19.0545 45.9896C18.8869 45.0199 19.0287 43.9973 19.0287 42.9531H35.8796C36.5399 47.7312 34.0305 51.7832 29.546 53.0193Z" fill="#0067CB"/>
<path d="M5.54583 20.8128C5.20638 21.3456 4.68789 21.5447 4.08776 21.5533C3.28711 21.5662 2.48503 21.5648 1.68294 21.5547C0.826432 21.5447 0.310807 21.0592 0 20.3044V19.5524C0.36237 18.6071 1.06849 18.2404 2.05391 18.2848C2.74714 18.3149 3.44466 18.2633 4.13789 18.2991C5.50859 18.3708 6.24766 19.7085 5.54583 20.8128Z" fill="#0067CB"/>
<path d="M46.9638 2.61823C46.3178 3.35443 45.6145 4.04909 44.8855 4.70508C44.2768 5.25221 43.3129 5.15911 42.7457 4.58477C42.1699 4.00039 42.0797 3.04076 42.6526 2.44492C43.4761 1.59128 44.3756 0.810677 45.2436 0H46.1015C46.2419 0.0744792 46.3851 0.144661 46.5212 0.226302C47.3949 0.750521 47.6326 1.85768 46.9638 2.61823Z" fill="#0067CB"/>
<path d="M12.1012 4.61628C11.5211 5.16341 10.6489 5.25794 10.0588 4.73372C9.30109 4.05911 8.56776 3.34583 7.90317 2.57956C7.25864 1.8362 7.55226 0.670313 8.42166 0.199089C8.54484 0.133203 8.66802 0.0658854 8.79119 0H9.54172C10.7262 0.615885 11.5383 1.64857 12.3734 2.63398C12.8661 3.21549 12.6784 4.07201 12.1012 4.61628Z" fill="#0067CB"/>
<path d="M45.4275 21.5676C45.1926 22.679 45.0193 23.7862 44.7214 24.8576C43.819 28.0874 42.1117 30.8345 39.6396 33.0961C37.7991 34.7805 36.6289 36.8415 36.152 39.2879C36.0875 39.6245 35.9887 39.7319 35.6507 39.7305C30.1836 39.7219 24.7165 39.7233 19.2495 39.729C18.9616 39.729 18.8155 39.6789 18.7525 39.3409C18.2999 36.9074 17.1612 34.8406 15.3365 33.1706C12.4361 30.5137 10.6013 27.2566 9.81497 23.4052C9.69466 22.8122 9.62448 22.2107 9.51562 21.5103H10.1845C13.4902 21.5103 16.7945 21.4917 20.1003 21.5232C20.8937 21.5303 21.501 21.3012 22.0453 20.7225C22.9763 19.7328 23.9632 18.7961 24.9128 17.8236C25.1176 17.6145 25.2751 17.5858 25.5573 17.699C28.2772 18.7803 31.3924 17.3151 32.2647 14.5637C33.1499 11.7721 31.5013 8.82019 28.6224 8.12123C26.706 7.65573 25.0288 8.16993 23.7283 9.65235C22.3991 11.1663 22.0224 12.9251 22.7557 14.8401C22.8975 15.2125 22.8374 15.403 22.5753 15.6551C21.7646 16.4371 20.9854 17.2521 20.1747 18.0341C20.0243 18.1802 19.7852 18.3191 19.5861 18.3191C16.3176 18.3363 13.0477 18.3306 9.77917 18.3277C9.72617 18.3277 9.67461 18.3091 9.58437 18.2905C10.4452 8.86745 17.8 2.08555 27.3605 2.03542C36.8781 1.98672 44.402 8.65691 45.3244 18.332H44.707C41.3841 18.332 38.0612 18.3464 34.7383 18.322C33.9849 18.3163 33.4048 18.5512 32.8878 19.0969C31.9525 20.0823 30.9699 21.0233 30.0189 21.993C29.8069 22.2092 29.6408 22.268 29.3285 22.1448C26.6057 21.0677 23.4948 22.5415 22.6297 25.2958C21.7474 28.1089 23.4346 31.0837 26.3408 31.7454C28.2357 32.178 29.8971 31.6566 31.1805 30.1857C32.491 28.6818 32.8634 26.9444 32.1573 25.0423C32.0198 24.6714 32.0398 24.4579 32.3392 24.1772C33.1599 23.4066 33.9305 22.5816 34.7397 21.7996C34.8901 21.655 35.1322 21.5232 35.3327 21.5217C38.584 21.506 41.8353 21.5117 45.0866 21.5132C45.1553 21.5132 45.2241 21.5346 45.4275 21.5676Z" fill="#0067CB"/>
<path d="M54.887 19.9336C54.8841 20.7228 54.3942 21.4146 53.6151 21.4776C52.5552 21.5607 51.4781 21.5678 50.4168 21.4891C49.6333 21.4318 49.1162 20.7357 49.1019 19.9723C49.0862 19.1702 49.5846 18.5385 50.3781 18.3523C50.464 18.3323 50.5514 18.3022 50.6388 18.3022C51.0857 18.2965 51.5311 18.2993 51.978 18.2993C51.978 18.2865 51.978 18.2721 51.9794 18.2578C52.5294 18.2922 53.088 18.2793 53.628 18.371C54.4114 18.5027 54.8884 19.1372 54.887 19.9336Z" fill="#0067CB"/>
<path d="M46.8423 39.3897C46.2179 39.9956 45.274 40.0185 44.6223 39.404C43.972 38.7924 43.3433 38.1579 42.7302 37.5091C42.2619 37.0135 42.1144 36.4191 42.4123 35.7789C42.6987 35.1659 43.1871 34.8178 44.0952 34.7734C44.2857 34.8694 44.6968 34.984 44.9832 35.2389C45.6636 35.8434 46.3052 36.4936 46.9197 37.1639C47.517 37.8142 47.4582 38.791 46.8423 39.3897Z" fill="#0067CB"/>
<path d="M12.2884 37.3504C11.6095 38.1066 10.8962 38.8385 10.1342 39.5103C9.50975 40.0617 8.57303 39.94 8.00728 39.3384C7.45298 38.7512 7.40428 37.7944 7.95858 37.19C8.59882 36.4939 9.26913 35.8221 9.97095 35.1876C10.2288 34.9542 10.6141 34.8582 10.9406 34.6992C11.6582 34.7952 12.138 35.1189 12.4474 35.699C12.7582 36.2805 12.7152 36.8763 12.2884 37.3504Z" fill="#0067CB"/>
<path d="M29.2789 13.0149C29.2817 14.0432 28.4782 14.8611 27.4656 14.8611C26.4172 14.8596 25.6366 14.0905 25.6251 13.0478C25.6151 11.975 26.3942 11.1787 27.4584 11.1758C28.4725 11.1729 29.2774 11.9879 29.2789 13.0149Z" fill="#0067CB"/>
<path d="M29.2691 26.7987C29.2763 27.8829 28.5072 28.6736 27.4415 28.675C26.4346 28.6779 25.6225 27.8572 25.6211 26.8345C25.6182 25.8047 26.4203 24.9883 27.4315 24.9883C28.4785 24.9883 29.2606 25.7589 29.2691 26.7987Z" fill="#0067CB"/>
</svg>
