<svg width="56" height="56" viewBox="0 0 56 56" fill="none" xmlns="http://www.w3.org/2000/svg">
<path d="M55.2483 4.42409V22.8758C54.8446 23.8431 54.1311 24.2208 53.0802 24.1833C51.5204 24.1271 49.9593 24.1689 48.3649 24.1689C48.2943 25.831 47.6658 27.1947 46.3914 28.221C45.3564 29.0542 44.1585 29.4146 42.8294 29.344C40.7132 29.2315 38.1401 27.5752 37.9498 24.1689H37.3775C35.8682 24.1689 34.3575 24.1732 32.8482 24.1674C31.8059 24.1616 31.0837 23.4452 31.0808 22.4073C31.0751 20.0172 31.0765 17.6257 31.0794 15.2342C31.0823 13.7624 32.3422 12.9537 33.6742 13.5779C34.1571 13.8042 34.6299 13.8604 35.1287 13.6615C36.0268 13.3011 36.4722 12.318 36.1234 11.4559C35.7673 10.5751 34.7351 10.1571 33.84 10.516C33.543 10.6342 33.2359 10.7726 32.9246 10.7957C31.891 10.8721 31.0852 10.1066 31.0823 9.06873C31.0736 6.76803 31.114 4.46589 31.0635 2.16519C31.0405 1.11719 31.3965 0.396423 32.3725 0H50.8242C50.9236 0.0360385 51.0202 0.0821678 51.1226 0.105232C52.8495 0.49589 54.0821 1.50064 54.81 3.10652C55.0003 3.52601 55.1041 3.98442 55.2483 4.42409Z" fill="#0067CB"/>
<path d="M24.5767 24.0947C24.2033 24.1755 23.7146 24.1423 23.3917 23.9592C22.2169 23.2918 20.647 24.1351 20.7018 25.7136C20.7609 27.4723 20.7148 29.2338 20.7148 31.0343H17.2767C17.1743 29.3722 16.5343 27.9624 15.1692 26.9374C14.1846 26.1994 13.0674 25.8491 11.8435 25.9111C9.57022 26.0278 7.12393 27.6726 6.88175 31.0401H0.00128137V30.462C0.00128137 25.5363 -0.00160171 20.6105 0.00128137 15.6862C0.00416445 12.5941 2.24143 10.3626 5.34219 10.3612C10.2665 10.3583 15.1922 10.3597 20.118 10.3597H20.7148V17.3858C20.7148 17.997 20.7407 18.6097 20.7104 19.2194C20.6326 20.7431 22.1635 21.5807 23.373 20.9291C24.3388 20.4087 25.4661 20.9248 25.8149 21.9425C26.1278 22.8521 25.5728 23.8828 24.5767 24.0947Z" fill="#0067CB"/>
<path d="M44.8868 34.5547V35.1544C44.8868 40.0614 44.8883 44.9684 44.8868 49.8754C44.8854 53.0165 42.6683 55.2408 39.5358 55.2422C34.6115 55.2451 29.6858 55.2437 24.7615 55.2437H24.1733V54.6238C24.1733 51.9108 24.1748 49.1964 24.1733 46.482C24.1719 44.8141 22.9999 44.0544 21.4632 44.7204C20.7064 45.0477 19.8401 44.8242 19.3398 44.1712C18.8699 43.5571 18.8713 42.7282 19.3427 42.1242C19.8574 41.4654 20.6891 41.2622 21.4704 41.6038C22.9941 42.2684 24.1719 41.4957 24.1733 39.825C24.1748 38.085 24.1733 36.3436 24.1733 34.5662H27.6128C27.7065 36.1807 28.3149 37.5531 29.5993 38.5737C30.5766 39.3521 31.7068 39.7327 32.9494 39.6967C35.0685 39.6361 37.7051 38.1931 38.0136 34.5547H44.8868Z" fill="#0067CB"/>
<path d="M16.6983 39.9202C15.9098 40.8889 15.522 42.0176 15.5451 43.2617C15.5941 46.0107 17.4537 47.8573 20.687 48.382V55.2466H20.1349C15.1919 55.2466 10.2474 55.2495 5.30437 55.2452C2.24686 55.2437 0.00382449 52.9964 0.00238295 49.936C-0.00194167 44.9929 0.000941414 40.0485 0.000941414 35.1054V34.5331H0.580441C3.3309 34.5331 6.0828 34.4985 8.83182 34.5461C10.4608 34.5735 11.2233 33.0022 10.5588 31.8519C10.1321 31.1109 10.4117 30.2027 11.0835 29.6924C11.699 29.2254 12.5294 29.234 13.1319 29.7112C13.7821 30.2287 13.9781 31.0605 13.6321 31.8432C12.9705 33.3424 13.7359 34.5288 15.3692 34.5317C17.1279 34.5346 18.8866 34.5331 20.6914 34.5331V37.9712C19.0783 38.0635 17.7204 38.666 16.6983 39.9202Z" fill="#0067CB"/>
</svg>
