<svg width="55" height="55" viewBox="0 0 55 55" fill="none" xmlns="http://www.w3.org/2000/svg">
<path d="M36.668 25.207C40.4721 25.207 43.5201 22.1362 43.5201 18.332C43.5201 14.5279 40.4721 11.457 36.668 11.457C32.8638 11.457 29.793 14.5279 29.793 18.332C29.793 22.1362 32.8638 25.207 36.668 25.207ZM18.3346 25.207C22.1388 25.207 25.1867 22.1362 25.1867 18.332C25.1867 14.5279 22.1388 11.457 18.3346 11.457C14.5305 11.457 11.4596 14.5279 11.4596 18.332C11.4596 22.1362 14.5305 25.207 18.3346 25.207ZM18.3346 29.7904C12.9951 29.7904 2.29297 32.4716 2.29297 37.8112V41.2487C2.29297 42.5091 3.32422 43.5404 4.58464 43.5404H32.0846C33.3451 43.5404 34.3763 42.5091 34.3763 41.2487V37.8112C34.3763 32.4716 23.6742 29.7904 18.3346 29.7904ZM36.668 29.7904C36.0034 29.7904 35.2471 29.8362 34.4451 29.9049C34.4909 29.9279 34.5138 29.9737 34.5367 29.9966C37.1492 31.8987 38.9596 34.4424 38.9596 37.8112V41.2487C38.9596 42.0508 38.7992 42.8299 38.5471 43.5404H50.418C51.6784 43.5404 52.7096 42.5091 52.7096 41.2487V37.8112C52.7096 32.4716 42.0076 29.7904 36.668 29.7904Z" fill="#0067CB"/>
</svg>
