<svg width="61" height="55" viewBox="0 0 61 55" fill="none" xmlns="http://www.w3.org/2000/svg">
<path d="M48.1307 41.5866C47.5778 42.4783 46.4702 42.7262 45.3965 42.178C43.266 41.0907 41.1457 39.9865 39.0118 38.9038C38.7463 38.7683 38.3676 38.5881 38.1461 38.6682C37.8011 38.7929 37.37 39.0917 37.3074 39.3782C37.2448 39.6615 37.5019 40.1251 37.7792 40.3222C38.3372 40.718 39.005 40.989 39.629 41.3094C41.2607 42.1487 42.9025 42.9726 44.5224 43.8304C45.8142 44.5157 45.9562 45.9988 44.8098 46.7411C44.103 47.1985 43.3641 47.1692 42.6134 46.7827C39.8099 45.3366 37.0014 43.8997 34.1945 42.4613C34.0288 42.3766 33.8665 42.2811 33.6923 42.218C33.1715 42.0316 32.6372 42.2088 32.4022 42.6446C32.1469 43.1189 32.3075 43.5162 32.7556 43.8012C33.1157 44.0306 33.5165 44.2077 33.902 44.4064C35.9716 45.4736 38.0463 46.5363 40.1126 47.6112C40.8616 48.0009 41.2319 48.6015 41.1153 49.3884C41.0087 50.0984 40.5454 50.6235 39.7744 50.7529C39.3128 50.8315 38.7345 50.7914 38.3287 50.5974C36.6311 49.7873 34.9808 48.9002 33.3119 48.0409C33.2392 48.0024 33.158 47.9685 33.1022 47.9146C31.9254 46.7519 30.4966 46.3545 28.826 46.7657C27.7794 44.4218 25.7892 43.8597 23.7043 44.2755C23.3645 43.4269 22.8336 42.6846 21.9509 42.1995C21.0903 41.7267 20.162 41.5589 19.1187 41.7129C18.7957 40.2914 17.9791 39.2303 16.4454 38.7514C14.9372 38.2816 13.5862 38.6158 12.3045 39.6107C12.0103 38.2555 11.4861 37.0927 9.84766 36.7016C11.7702 32.7406 13.6623 28.8396 15.5679 24.9141C15.6795 24.9418 15.7657 24.9433 15.83 24.9788C17.6848 25.9921 19.6395 25.8966 21.6398 25.4438C23.0483 25.1235 24.4686 24.7893 25.938 24.9325C26.66 25.0019 27.3668 25.1882 28.082 25.3222C28.1108 25.3976 28.1412 25.4716 28.1699 25.547C26.2001 27.0378 24.2505 28.5532 22.2485 30.007C21.4792 30.566 20.5931 30.9911 19.7562 31.4731C18.8008 32.0214 18.6554 32.7344 19.3402 33.5445C21.5333 36.1364 24.3131 36.9387 27.9383 35.93C29.4432 35.5111 30.8872 34.9136 32.3768 34.4408C33.2459 34.1651 34.1421 33.9464 35.0416 33.757C35.8938 33.5768 36.719 33.7293 37.4782 34.1235C40.7365 35.813 43.9948 37.4993 47.2464 39.198C48.3048 39.7508 48.6549 40.7442 48.1307 41.5866Z" fill="#0067CB"/>
<path d="M39.1235 12.0066C39.1235 10.7591 39.1117 9.51017 39.132 8.26274C39.1371 7.94549 39.0255 7.78225 38.7042 7.65904C36.0529 6.63645 33.4084 5.5923 30.752 4.57742C30.5356 4.49579 30.2143 4.50195 29.9945 4.58666C27.3568 5.59538 24.7308 6.63029 22.0965 7.64364C21.7617 7.77301 21.6162 7.92239 21.6196 8.27506C21.6416 10.6359 21.5824 12.9999 21.6534 15.3593C21.7498 18.521 23.302 21.0143 26.0835 22.8824C26.2797 23.0133 26.5316 23.0841 26.7666 23.158C27.6949 23.4506 28.6401 23.7048 29.5515 24.0389C29.8795 24.1606 30.0994 24.1883 30.4054 24.0205C31.589 23.3706 32.8639 22.944 34.242 22.7761C34.5633 22.7376 34.942 22.6945 35.177 22.522C37.2619 20.9927 38.6129 19.0276 38.9528 16.6036C39.1675 15.0882 39.1201 13.542 39.1895 12.0097C39.1675 12.0081 39.1455 12.0081 39.1235 12.0066ZM36.9626 11.6924C36.8933 11.9758 36.7242 12.2776 36.5027 12.484C34.4145 14.4368 32.311 16.3772 30.1957 18.3069C29.3892 19.043 28.5032 19.0353 27.6915 18.3069C26.5637 17.2982 25.4461 16.2787 24.3369 15.253C23.5844 14.5584 23.5438 13.6606 24.2117 13.0569C24.883 12.4501 25.8502 12.4948 26.6246 13.1878C27.3906 13.8716 28.1396 14.5692 28.8921 15.2576C29.7882 14.4599 30.6506 13.7022 31.4994 12.9337C32.426 12.0928 33.3289 11.2304 34.2657 10.4019C34.8456 9.88748 35.5338 9.8151 36.1797 10.137C36.7952 10.4419 37.1232 11.0287 36.9626 11.6924Z" fill="#0067CB"/>
<path d="M50.9397 37.9273C50.4967 38.0951 50.0841 38.2676 49.658 38.4031C49.5515 38.437 49.3824 38.3893 49.2775 38.3292C48.263 37.7502 47.2772 37.1295 46.2441 36.5813C43.9868 35.3847 41.6449 34.3128 39.4553 33.0238C37.1388 31.6608 34.824 31.627 32.3553 32.4925C30.6678 33.0838 28.9871 33.7076 27.259 34.1773C24.8005 34.8441 22.7731 34.3236 21.2852 32.7804C21.9023 32.4124 22.5567 32.0921 23.1181 31.6716C25.0389 30.2363 26.9039 28.7394 28.8383 27.3195C29.8342 26.5895 30.8741 25.878 31.9951 25.3251C34.2541 24.2116 36.5825 24.4488 38.8838 25.3051C39.6446 25.5869 40.4072 25.861 41.1732 26.129C42.7136 26.6665 44.2455 26.7558 45.8451 25.9611C47.5495 29.9653 49.2285 33.9062 50.9397 37.9273Z" fill="#0067CB"/>
<path d="M43.6329 15.8875C43.5399 18.7242 42.3969 21.2684 40.4811 23.5169C40.2799 23.7525 40.1058 23.811 39.7896 23.6924C39.1098 23.4383 38.4098 23.2304 37.6489 22.9825C38.0125 22.5728 38.3574 22.214 38.6685 21.8305C40.3019 19.8238 41.1118 17.5569 41.1355 15.0682C41.1609 12.5518 41.1321 10.0353 41.1507 7.51736C41.1558 6.92598 40.9326 6.55021 40.3154 6.31304C37.2161 5.11643 34.1319 3.88285 31.0224 2.7078C30.647 2.56612 30.0907 2.57998 29.7103 2.7232C26.6397 3.88285 23.5961 5.09949 20.5322 6.27454C19.8812 6.52403 19.5955 6.88594 19.6022 7.54046C19.6293 9.9614 19.6141 12.3824 19.6124 14.8018C19.609 17.8926 20.7216 20.5892 23.028 22.8685C23.1226 22.9624 23.2055 23.0672 23.3391 23.2181C22.4649 23.4014 21.6583 23.5908 20.84 23.7263C20.6692 23.754 20.3936 23.6277 20.2769 23.4938C18.6063 21.5718 17.58 19.388 17.2316 16.9594C17.1133 16.1431 17.0845 15.3131 17.0812 14.4891C17.0626 11.5307 17.0829 8.57228 17.0626 5.61386C17.0592 5.22269 17.1961 5.04097 17.5817 4.89158C21.7277 3.28686 25.8635 1.66365 30.0113 0.0620077C30.2277 -0.0226946 30.5523 -0.0196146 30.7705 0.0650878C34.9351 1.67443 39.0879 3.30688 43.2491 4.92238C43.567 5.04405 43.6921 5.19189 43.6887 5.51376C43.6701 8.9727 43.7479 12.4332 43.6329 15.8875Z" fill="#0067CB"/>
<path d="M60.5351 36.741C59.5155 34.3293 58.4875 31.9207 57.4628 29.5105C56.1507 26.4212 54.8386 23.3334 53.5231 20.2441C53.1375 19.337 52.5846 18.9319 51.5786 18.9258C51.4771 18.9504 51.2049 18.9889 50.9529 19.0752C49.8522 19.454 48.7514 19.8375 47.6591 20.2379C46.4958 20.6645 46.1035 21.4746 46.5617 22.5526C48.9239 28.1245 51.2945 33.6948 53.6702 39.262C54.1301 40.337 55.0178 40.6912 56.1997 40.2908C57.2633 39.9289 58.3218 39.5577 59.3786 39.1773C60.6518 38.7184 61.0322 37.9191 60.5351 36.741ZM50.5843 23.8462C49.9452 23.8277 49.4498 23.3534 49.4498 22.7605C49.4514 22.1691 49.9469 21.6994 50.5877 21.6855C51.2522 21.6701 51.7865 22.1522 51.7848 22.7651C51.7848 23.3796 51.2455 23.8647 50.5843 23.8462Z" fill="#0067CB"/>
<path d="M14.0045 19.3014C12.9291 18.8671 11.8554 18.4267 10.7733 18.0062C9.58121 17.5427 8.69012 17.8646 8.15749 18.9611C5.51128 24.4067 2.87014 29.8523 0.234067 35.3025C-0.288413 36.382 0.0683611 37.2013 1.25873 37.6942C2.27326 38.1146 3.29454 38.5212 4.31583 38.9262C5.57891 39.4252 6.48184 39.1172 7.03644 37.9744C9.66744 32.5658 12.2917 27.1526 14.9125 21.7393C15.0461 21.4636 15.1256 21.1649 15.1949 20.9755C15.1543 20.1146 14.7485 19.6017 14.0045 19.3014ZM12.0465 21.7994C11.9941 22.3861 11.4665 22.7835 10.7936 22.7465C10.1206 22.7095 9.66913 22.2152 9.72662 21.5761C9.77904 20.9893 10.3032 20.5935 10.9762 20.6289C11.6491 20.6659 12.104 21.1633 12.0465 21.7994Z" fill="#0067CB"/>
<path d="M21.6702 45.8675C20.8299 47.3922 19.9625 48.906 19.0646 50.4029C18.6267 51.1345 17.6832 51.4317 16.831 51.2022C15.9838 50.9743 15.4444 50.3028 15.3633 49.4497C15.5002 49.1155 15.5966 48.7613 15.7826 48.4502C16.6095 47.0703 17.4583 45.7012 18.302 44.329C18.7991 43.522 19.8221 43.251 20.7453 43.676C21.6364 44.0857 22.0963 45.096 21.6702 45.8675Z" fill="#0067CB"/>
<path d="M26.6556 48.5301C26.0063 49.6682 25.3418 50.8016 24.6908 51.9397C24.3137 52.5989 23.7236 52.9253 23.2873 52.9315C21.446 52.9192 20.587 51.6117 21.2667 50.4228C21.938 49.2493 22.6076 48.0757 23.2823 46.9053C23.7895 46.026 24.914 45.7072 25.8642 46.1661C26.8077 46.6219 27.1577 47.6522 26.6556 48.5301Z" fill="#0067CB"/>
<path d="M17.1632 42.2147C17.0347 42.532 16.9451 42.8692 16.7692 43.1634C16.1673 44.1721 15.5383 45.167 14.916 46.1665C14.4003 46.9966 13.4331 47.2876 12.4964 46.8995C11.5935 46.5238 11.0642 45.5043 11.4886 44.6819C12.1126 43.4714 12.8194 42.2917 13.5583 41.1351C13.9878 40.4652 14.9313 40.225 15.7243 40.4575C16.5799 40.707 17.0956 41.3631 17.1632 42.2147Z" fill="#0067CB"/>
<path d="M31.9317 50.6101C31.8454 50.9012 31.6882 51.1784 31.5343 51.4479C31.0271 52.3304 30.5249 53.2143 29.9838 54.0799C29.5239 54.8175 28.6057 55.1502 27.7738 54.9346C26.9149 54.7113 26.3349 54.0352 26.3281 53.0881C26.3535 53.0203 26.4025 52.7939 26.5141 52.5968C27.1279 51.5064 27.7535 50.4223 28.3825 49.3396C28.8408 48.5496 29.8299 48.2277 30.7531 48.5588C31.6408 48.8776 32.1802 49.7878 31.9317 50.6101Z" fill="#0067CB"/>
<path d="M36.0688 53.6734C35.5261 54.4157 34.4946 54.6667 33.6222 54.2555C33.2519 54.0815 32.8985 53.8782 32.5586 53.7011C33.0912 52.6477 33.6052 51.6344 34.148 50.5625C34.6079 50.8181 35.1913 51.083 35.6985 51.4403C36.4341 51.9593 36.5727 52.9865 36.0688 53.6734Z" fill="#0067CB"/>
</svg>
